<?xml version="1.0" standalone="no"?>
<!DOCTYPE svg PUBLIC "-//W3C//DTD SVG 20010904//EN"
 "http://www.w3.org/TR/2001/REC-SVG-20010904/DTD/svg10.dtd">
<svg version="1.0" xmlns="http://www.w3.org/2000/svg"
 width="1039.000000pt" height="362.000000pt" viewBox="0 0 1039.000000 362.000000"
 preserveAspectRatio="xMidYMid meet">

<g transform="translate(0.000000,362.000000) scale(0.100000,-0.100000)"
fill="#000000" stroke="none">
<path d="M20 1820 l0 -1800 5175 0 5175 0 0 1800 0 1800 -5175 0 -5175 0 0
-1800z m3600 0 l0 -1650 -1725 0 -1725 0 0 1650 0 1650 1725 0 1725 0 0 -1650z
m3238 533 l2 -273 -65 0 -65 0 0 268 c0 148 3 272 7 276 4 4 32 6 63 4 l55 -3
3 -272z m-2758 -13 l0 -260 -60 0 -60 0 0 260 0 260 60 0 60 0 0 -260z m3246
232 c53 -27 117 -100 132 -150 58 -192 -88 -366 -292 -350 -144 12 -243 107
-254 245 -10 125 65 234 188 274 47 16 181 4 226 -19z m1594 17 c75 -12 121
-37 149 -82 62 -101 15 -233 -96 -271 -27 -9 -80 -16 -125 -16 l-78 0 0 -70 0
-70 -60 0 -60 0 0 260 0 260 103 0 c56 0 131 -5 167 -11z m-4100 -69 l0 -40
50 0 50 0 0 -50 0 -50 -51 0 -51 0 4 -94 c1 -52 7 -98 11 -103 5 -4 27 -8 49
-8 38 0 42 -2 54 -37 12 -35 11 -39 -9 -50 -34 -19 -129 -16 -160 5 -50 33
-60 61 -65 178 l-5 109 -28 0 c-28 0 -29 2 -29 50 0 49 1 50 30 50 28 0 30 2
30 40 l0 40 60 0 60 0 0 -40z m-520 -60 c0 -20 0 -20 42 1 53 27 144 23 186
-7 52 -39 62 -75 62 -231 l0 -143 -60 0 -60 0 0 129 c0 129 0 130 -27 151 -35
27 -79 21 -110 -16 -21 -23 -23 -35 -23 -145 l0 -119 -60 0 -60 0 0 200 0 200
55 0 c49 0 55 -2 55 -20z m978 -1 c60 -30 95 -84 100 -160 l4 -59 -146 0 c-80
0 -146 -4 -146 -8 0 -20 51 -54 89 -59 29 -4 51 0 80 15 l40 21 25 -30 c15
-17 26 -34 26 -39 0 -18 -54 -49 -106 -61 -134 -30 -266 52 -274 171 -5 68 0
97 27 138 55 85 184 117 281 71z m292 2 c0 -18 1 -18 37 0 21 10 50 19 65 19
27 0 28 -1 28 -55 l0 -55 -33 0 c-73 0 -97 -48 -97 -197 l0 -93 -60 0 -60 0 0
200 0 200 60 0 c52 0 60 -2 60 -19z m310 0 c0 -18 1 -18 37 0 48 24 127 25
173 1 22 -12 44 -35 58 -62 20 -40 22 -59 22 -182 l0 -138 -60 0 -60 0 0 125
c0 120 -1 127 -25 150 -28 29 -54 31 -95 10 -36 -19 -39 -31 -43 -170 l-2
-110 -62 -3 -63 -3 0 201 0 200 60 0 c52 0 60 -2 60 -19z m666 -7 c64 -47 69
-62 72 -225 l4 -149 -61 0 c-48 0 -61 3 -61 15 0 13 -4 13 -27 -2 -35 -23
-127 -23 -170 0 -85 45 -81 168 5 204 20 8 71 18 113 20 66 5 76 8 72 22 -3 9
-13 22 -21 29 -21 16 -111 15 -142 -3 -14 -8 -28 -14 -31 -15 -11 0 -41 78
-35 89 26 42 232 53 282 15z m1114 7 c0 -18 1 -18 37 0 44 22 120 25 166 5 18
-7 46 -29 64 -49 87 -100 61 -262 -52 -321 -51 -26 -140 -28 -178 -3 l-27 17
0 -85 0 -85 -60 0 -60 0 0 270 0 270 55 0 c47 0 55 -3 55 -19z m672 -2 l27
-14 -19 -42 -18 -41 -39 13 c-68 25 -143 14 -143 -19 0 -14 49 -36 79 -36 38
0 97 -24 123 -50 38 -38 39 -96 2 -139 -34 -40 -117 -66 -188 -57 -50 6 -146
34 -146 42 0 8 40 84 44 84 2 0 20 -7 39 -15 46 -19 141 -20 156 -1 17 20 -5
33 -88 51 -84 17 -104 27 -125 57 -37 53 -9 134 59 169 33 17 54 20 125 16 48
-2 97 -10 112 -18z m948 1 l0 -20 37 20 c21 11 52 20 70 20 l33 0 0 -55 0 -55
-40 0 c-30 0 -47 -7 -65 -25 -24 -23 -25 -30 -25 -145 l0 -121 -62 3 -63 3 -3
185 c-1 101 0 190 2 197 4 8 25 13 61 13 48 0 55 -2 55 -20z m495 -6 c108 -56
138 -210 58 -305 -85 -101 -269 -99 -347 4 -79 104 -41 253 79 309 53 25 154
21 210 -8z"/>
<path d="M1713 3203 l-193 -105 0 -39 c0 -44 0 -43 -33 -28 -22 10 -46 -1
-221 -97 l-196 -109 0 -38 c0 -33 -3 -38 -17 -32 -35 15 -52 8 -241 -95 l-192
-105 0 -215 0 -215 42 -24 42 -24 -42 -21 -42 -20 0 -215 0 -216 42 -24 42
-24 -42 -21 -42 -20 0 -216 0 -216 197 -109 c180 -99 199 -107 225 -97 28 10
28 10 28 -28 l0 -38 199 -109 c189 -104 200 -109 225 -96 26 14 26 14 26 -26
l0 -40 193 -106 c105 -59 197 -108 203 -108 6 0 97 47 202 104 l192 104 0 43
c0 46 5 49 36 28 19 -13 36 -6 215 92 l194 107 3 43 c3 37 6 43 20 37 9 -4 24
-9 33 -12 9 -2 101 42 205 100 l189 104 3 219 2 219 -37 21 -38 22 38 22 37
22 0 217 0 216 -35 19 c-19 11 -35 22 -35 26 0 3 16 14 35 23 l35 17 0 218 0
218 -197 109 c-165 91 -199 106 -214 96 -31 -19 -39 -13 -39 28 l0 39 -196
107 c-176 97 -198 107 -220 96 -34 -15 -34 -16 -34 28 l0 40 -192 105 c-105
58 -196 106 -202 106 -6 -1 -98 -48 -203 -107z m226 -743 c29 15 31 13 31 -27
l0 -38 193 -105 c190 -104 205 -110 240 -95 14 6 17 1 17 -33 0 -34 4 -41 30
-52 52 -21 54 -35 10 -55 l-40 -18 0 -216 0 -216 42 -24 42 -24 -42 -21 c-40
-19 -42 -22 -42 -64 l0 -44 -25 16 c-25 17 -29 15 -223 -92 l-197 -109 -5 -41
c-5 -40 -6 -40 -30 -27 -21 11 -29 11 -52 -1 l-28 -15 0 43 0 43 -196 107
c-193 105 -197 107 -225 92 l-29 -15 0 44 c0 40 -3 45 -36 60 -39 19 -37 30 7
52 l29 16 0 217 0 217 -35 19 c-19 11 -35 22 -35 26 0 3 16 14 35 23 31 15 35
21 35 57 0 42 8 48 39 28 16 -9 48 5 215 96 l196 108 0 44 0 45 30 -16 c22
-12 35 -13 49 -5z"/>
<path d="M7175 2491 c-75 -18 -115 -73 -115 -158 0 -156 188 -210 283 -81 27
36 27 124 1 169 -33 55 -105 85 -169 70z"/>
<path d="M8790 2404 l0 -87 77 5 c68 5 79 8 100 32 23 27 29 59 17 91 -11 28
-60 45 -129 45 l-65 0 0 -86z"/>
<path d="M5135 2365 c-14 -13 -25 -29 -25 -35 0 -6 34 -10 90 -10 87 0 90 1
80 19 -29 54 -104 68 -145 26z"/>
<path d="M6392 2228 c-31 -31 -5 -68 48 -68 39 0 80 32 80 63 0 14 -10 17 -58
17 -32 0 -63 -5 -70 -12z"/>
<path d="M7716 2354 c-36 -37 -37 -110 -2 -151 48 -55 145 -26 161 48 8 38
-11 95 -38 114 -35 24 -90 19 -121 -11z"/>
<path d="M9616 2354 c-36 -37 -37 -110 -2 -151 49 -57 146 -26 160 52 8 41
-14 99 -42 114 -37 20 -87 13 -116 -15z"/>
</g>
</svg>
